<svg xmlns="http://www.w3.org/2000/svg" viewBox="0 0 44.12 44.12"><defs><style>.cls-1{fill:none;stroke:#fff;stroke-miterlimit:10;stroke-width:2px;}</style></defs><g id="Capa_2" data-name="Capa 2"><g id="LineaGrafica"><path class="cls-1" d="M22.06,1A21.06,21.06,0,1,0,43.12,22.06,21.06,21.06,0,0,0,22.06,1ZM36,22.89a2.35,2.35,0,0,1-2.34,2.34H25.44v8.19a2.35,2.35,0,0,1-2.34,2.34H20.76a2.34,2.34,0,0,1-2.34-2.34V25.23H10.23a2.34,2.34,0,0,1-2.34-2.34V20.55a2.34,2.34,0,0,1,2.34-2.34h8.19V10a2.34,2.34,0,0,1,2.34-2.34H23.1A2.35,2.35,0,0,1,25.44,10v8.19h8.19A2.35,2.35,0,0,1,36,20.55Z"/></g></g></svg>