<svg xmlns="http://www.w3.org/2000/svg" viewBox="0 0 31.13 37.09"><defs><style>.cls-1{fill:none;stroke:#fff;stroke-miterlimit:10;stroke-width:2px;}</style></defs><g id="Capa_2" data-name="Capa 2"><g id="LineaGrafica"><path class="cls-1" d="M29,26.16a1.67,1.67,0,0,1-1.13-1.5l-1.1-12.57,0-.21C25.85,7.07,22.21,3.61,18,3.5A2.59,2.59,0,0,0,15.56,1a2.58,2.58,0,0,0-2.4,2.5c-4.25.11-7.88,3.57-8.76,8.38l0,.21L3.26,24.66a1.65,1.65,0,0,1-1.12,1.5A1.72,1.72,0,0,0,1,27.84v1.9a1.62,1.62,0,0,0,1.5,1.72h8.22a4.62,4.62,0,0,0,4.84,4.63,4.64,4.64,0,0,0,4.85-4.63h8.22a1.62,1.62,0,0,0,1.5-1.72v-1.9A1.72,1.72,0,0,0,29,26.16Z"/></g></g></svg>