<svg xmlns="http://www.w3.org/2000/svg" viewBox="0 0 42.12 35.1"><defs><style>.cls-1{fill:#0fa6ad;}</style></defs><g id="Capa_2" data-name="Capa 2"><g id="LineaGrafica"><path class="cls-1" d="M36.23,0H5.89A5.89,5.89,0,0,0,0,5.89V29.21A5.89,5.89,0,0,0,5.89,35.1H36.23a5.89,5.89,0,0,0,5.89-5.89V5.89A5.89,5.89,0,0,0,36.23,0Zm3.16,27.85a4.52,4.52,0,0,1-4.52,4.52H7.25a4.52,4.52,0,0,1-4.52-4.52V11.15A4.52,4.52,0,0,1,7.25,6.63H34.87a4.52,4.52,0,0,1,4.52,4.52Z"/><rect class="cls-1" x="19.3" y="9.16" width="3.51" height="3.51" rx="1"/><rect class="cls-1" x="25.93" y="9.16" width="3.51" height="3.51" rx="1"/><rect class="cls-1" x="32.56" y="9.16" width="3.51" height="3.51" rx="1"/><rect class="cls-1" x="19.3" y="17.74" width="3.51" height="3.51" rx="1"/><rect class="cls-1" x="12.67" y="17.74" width="3.51" height="3.51" rx="1"/><rect class="cls-1" x="6.04" y="17.74" width="3.51" height="3.51" rx="1"/><rect class="cls-1" x="25.93" y="17.74" width="3.51" height="3.51" rx="1"/><rect class="cls-1" x="32.56" y="17.74" width="3.51" height="3.51" rx="1"/><rect class="cls-1" x="6.04" y="26.32" width="3.51" height="3.51" rx="1"/><rect class="cls-1" x="12.67" y="26.32" width="3.51" height="3.51" rx="1"/><rect class="cls-1" x="19.3" y="26.32" width="3.51" height="3.51" rx="1"/></g></g></svg>