<svg xmlns="http://www.w3.org/2000/svg" viewBox="0 0 44.12 44.12"><defs><style>.cls-1{fill:none;stroke:#fff;stroke-miterlimit:10;stroke-width:2px;}</style></defs><g id="Capa_2" data-name="Capa 2"><g id="LineaGrafica"><path class="cls-1" d="M31.54,18.78,38.91,9A2.33,2.33,0,0,1,40.78,8h0a2.34,2.34,0,0,0,2.34-2.34V3.34A2.34,2.34,0,0,0,40.78,1H3.34A2.34,2.34,0,0,0,1,3.34V5.68A2.34,2.34,0,0,0,3.34,8h0A2.33,2.33,0,0,1,5.21,9l7.37,9.82a2.34,2.34,0,0,0,1.87.94h0a2.34,2.34,0,0,1,2.34,2.34h0a2.34,2.34,0,0,1-2.34,2.34h0a2.34,2.34,0,0,0-1.87.94L5.21,35.16a2.33,2.33,0,0,1-1.87.94h0A2.34,2.34,0,0,0,1,38.44v2.34a2.34,2.34,0,0,0,2.34,2.34H40.78a2.34,2.34,0,0,0,2.34-2.34V38.44a2.34,2.34,0,0,0-2.34-2.34h0a2.33,2.33,0,0,1-1.87-.94l-7.37-9.82a2.34,2.34,0,0,0-1.87-.94h0a2.34,2.34,0,0,1-2.34-2.34h0a2.34,2.34,0,0,1,2.34-2.34h0A2.34,2.34,0,0,0,31.54,18.78Z"/></g></g></svg>