<svg xmlns="http://www.w3.org/2000/svg" viewBox="0 0 44.12 44.12"><defs><style>.cls-1{fill:none;stroke:#fff;stroke-miterlimit:10;stroke-width:2px;}</style></defs><g id="Capa_2" data-name="Capa 2"><g id="LineaGrafica"><path class="cls-1" d="M41.81,26l-3.66-1.55a16.07,16.07,0,0,0,0-4.54l3.68-1.48a2,2,0,0,0,1.1-2.6L41.41,12a2,2,0,0,0-2.59-1.1l-3.68,1.48A16.43,16.43,0,0,0,32,9.15l1.55-3.66a2,2,0,0,0-1.06-2.61L28.63,1.26A2,2,0,0,0,26,2.31L24.47,6a16.07,16.07,0,0,0-4.54,0L18.45,2.25a2,2,0,0,0-2.6-1.1L12,2.71A2,2,0,0,0,10.9,5.3L12.38,9a16.43,16.43,0,0,0-3.23,3.17L5.49,10.6a2,2,0,0,0-2.61,1.06L1.26,15.49A2,2,0,0,0,2.31,18.1L6,19.65a16.07,16.07,0,0,0,0,4.54L2.25,25.67a2,2,0,0,0-1.1,2.6l1.56,3.85a2,2,0,0,0,2.59,1.1L9,31.74A16.43,16.43,0,0,0,12.15,35L10.6,38.63a2,2,0,0,0,1.06,2.61l3.83,1.62a2,2,0,0,0,2.61-1l1.55-3.66a16.07,16.07,0,0,0,4.54,0l1.48,3.68a2,2,0,0,0,2.6,1.1l3.85-1.56a2,2,0,0,0,1.1-2.59l-1.48-3.68A16.43,16.43,0,0,0,35,32l3.66,1.55a2,2,0,0,0,2.61-1.06l1.62-3.83A2,2,0,0,0,41.81,26ZM21.89,32A10,10,0,1,1,32,22.23,9.95,9.95,0,0,1,21.89,32Z"/></g></g></svg>