<svg xmlns="http://www.w3.org/2000/svg" viewBox="0 0 30.08 30.08"><defs><style>.cls-1{fill:none;stroke:#fff;stroke-miterlimit:10;stroke-width:2px;}</style></defs><g id="Capa_2" data-name="Capa 2"><g id="LineaGrafica"><path class="cls-1" d="M29.08,13.87v2.34a2.34,2.34,0,0,1-2.34,2.34H18.55v8.19a2.34,2.34,0,0,1-2.34,2.34H13.87a2.34,2.34,0,0,1-2.34-2.34V18.55H3.34A2.34,2.34,0,0,1,1,16.21V13.87a2.33,2.33,0,0,1,2.34-2.34h8.19V3.34A2.33,2.33,0,0,1,13.87,1h2.34a2.34,2.34,0,0,1,2.34,2.34v8.19h8.19A2.34,2.34,0,0,1,29.08,13.87Z"/></g></g></svg>