<svg xmlns="http://www.w3.org/2000/svg" viewBox="0 0 36.39 38.03"><defs><style>.cls-1{fill:none;stroke:#fff;stroke-miterlimit:10;stroke-width:1.5px;}</style></defs><g id="Capa_2" data-name="Capa 2"><g id="LineaGrafica"><path class="cls-1" d="M35.64,3.86a3.11,3.11,0,1,0-4.49,2.76,7,7,0,0,1-14,0,3.09,3.09,0,1,0-2.73,0,9.75,9.75,0,0,0,8,9.13V26.37a7.63,7.63,0,0,1-11,7,7.72,7.72,0,0,1-4.15-7V23a4.68,4.68,0,1,0-3.33.08v3.28a10.37,10.37,0,0,0,.18,1.94,10.91,10.91,0,0,0,21.48,0,10.37,10.37,0,0,0,.18-1.94V15.81a9.73,9.73,0,0,0,8.17-9.16A3.1,3.1,0,0,0,35.64,3.86Z"/></g></g></svg>