<svg xmlns="http://www.w3.org/2000/svg" viewBox="0 0 42.12 42.12"><defs><style>.cls-1,.cls-2{fill:#f18821;}.cls-2{stroke:#f18821;stroke-linecap:round;stroke-linejoin:round;}</style></defs><g id="Capa_2" data-name="Capa 2"><g id="LineaGrafica"><path class="cls-1" d="M34.7,0H7.42A7.42,7.42,0,0,0,0,7.42V34.7a7.42,7.42,0,0,0,7.42,7.42H34.7a7.42,7.42,0,0,0,7.42-7.42V7.42A7.42,7.42,0,0,0,34.7,0Zm4.69,34.13a5.27,5.27,0,0,1-5.26,5.26H8a5.27,5.27,0,0,1-5.26-5.26V8A5.27,5.27,0,0,1,8,2.73H34.13A5.27,5.27,0,0,1,39.39,8Z"/><path class="cls-2" d="M7.41,23H10.9a.38.38,0,0,0,.35-.21L14.8,15.9a.4.4,0,0,1,.72,0l5.17,12.29a.39.39,0,0,0,.74,0l5.51-16.58a.39.39,0,0,1,.75,0l3.59,11.06a.39.39,0,0,0,.37.27H35.1v.78H31a.4.4,0,0,1-.38-.28L27.69,14a.4.4,0,0,0-.76,0L21.48,30.5a.39.39,0,0,1-.74,0l-5.26-13a.39.39,0,0,0-.71,0l-3.2,6.06a.4.4,0,0,1-.35.21H7.41Z"/></g></g></svg>