<svg xmlns="http://www.w3.org/2000/svg" viewBox="0 0 33.06 43.92"><defs><style>.cls-1{fill:none;stroke:#f18720;stroke-miterlimit:10;stroke-width:2px;}.cls-2{fill:#f18720;}</style></defs><g id="Capa_2" data-name="Capa 2"><g id="LineaGrafica"><path class="cls-1" d="M8.71,1H24.34a1.5,1.5,0,0,1,1.5,1.5V5.66a0,0,0,0,1,0,0H7.21a0,0,0,0,1,0,0V2.5A1.5,1.5,0,0,1,8.71,1Z"/><path class="cls-1" d="M5.61,5.66H27.45A1.5,1.5,0,0,1,29,7.16v3.16a0,0,0,0,1,0,0H4.11a0,0,0,0,1,0,0V7.16A1.5,1.5,0,0,1,5.61,5.66Z"/><path class="cls-1" d="M2.5,10.32H30.56a1.5,1.5,0,0,1,1.5,1.5V14a1,1,0,0,1-1,1H2a1,1,0,0,1-1-1V11.82a1.5,1.5,0,0,1,1.5-1.5Z"/><rect class="cls-1" x="4.11" y="14.97" width="24.84" height="4.66"/><path class="cls-1" d="M4.11,38.27H29a0,0,0,0,1,0,0v3.16a1.5,1.5,0,0,1-1.5,1.5H5.61a1.5,1.5,0,0,1-1.5-1.5V38.27A0,0,0,0,1,4.11,38.27Z"/><rect class="cls-1" x="4.11" y="19.63" width="24.84" height="18.63"/><path class="cls-2" d="M22.39,28v1.32a1.46,1.46,0,0,1-1.47,1.42H18.81v2.11a1.48,1.48,0,0,1-1.48,1.48H16.07a1.48,1.48,0,0,1-1.48-1.48V30.77H12.48A1.46,1.46,0,0,1,11,29.35V28a1.46,1.46,0,0,1,1.47-1.42h2.11V24.45A1.47,1.47,0,0,1,16.07,23h1.26a1.47,1.47,0,0,1,1.48,1.43v2.16h2.11A1.46,1.46,0,0,1,22.39,28Z"/></g></g></svg>