<svg xmlns="http://www.w3.org/2000/svg" viewBox="0 0 44.13 44.12"><defs><style>.cls-1{fill:none;stroke:#fff;stroke-miterlimit:10;stroke-width:2px;}</style></defs><g id="Capa_2" data-name="Capa 2"><g id="LineaGrafica"><path class="cls-1" d="M43.12,12.67v7.78c0,.54,0,1.08-.06,1.61A22.65,22.65,0,0,1,22.45,43c-.66.06-1.33.09-2,.09H12.67A11.68,11.68,0,0,1,1,31.45V12.67A11.68,11.68,0,0,1,12.67,1H31.45A11.68,11.68,0,0,1,43.12,12.67Z"/><path class="cls-1" d="M43.06,22.06A22.65,22.65,0,0,1,22.45,43V36a14,14,0,0,1,14-13.95Z"/></g></g></svg>