<svg xmlns="http://www.w3.org/2000/svg" viewBox="0 0 41.76 40.15"><defs><style>.cls-1{fill:none;stroke:#fff;stroke-miterlimit:10;stroke-width:2px;}</style></defs><g id="Capa_2" data-name="Capa 2"><g id="LineaGrafica"><path class="cls-1" d="M27.11,20.86H41.63a0,0,0,0,1,0,0V36.94a0,0,0,0,1,0,0H27.11a8,8,0,0,1-8-8v0A8,8,0,0,1,27.11,20.86Z" transform="translate(32.86 70.73) rotate(-137.02)"/><path class="cls-1" d="M.13,3.22H14.67a8,8,0,0,1,8,8v0a8,8,0,0,1-8,8H.13a0,0,0,0,1,0,0V3.22A0,0,0,0,1,.13,3.22Z" transform="translate(12.1 27.28) rotate(-137.02)"/></g></g></svg>