<svg xmlns="http://www.w3.org/2000/svg" viewBox="0 0 38.14 38.09"><defs><style>.cls-1{fill:none;stroke:#fff;stroke-miterlimit:10;stroke-width:1.69px;}</style></defs><g id="Capa_2" data-name="Capa 2"><g id="LineaGrafica"><path class="cls-1" d="M22.87.85a13.5,13.5,0,0,0-1.42.07A14.51,14.51,0,0,0,10.36,22.55h0L2.19,30.78l-.52.52a2.84,2.84,0,0,0,0,4l1.11,1.11a2.83,2.83,0,0,0,4,0L7.25,36l8.17-8.22h0a14.23,14.23,0,0,0,9.22,2,14.53,14.53,0,0,0,12.58-13c0-.47.06-.93.06-1.39A14.46,14.46,0,0,0,22.87.85Zm0,24a9.53,9.53,0,1,1,9.48-9.53A9.5,9.5,0,0,1,22.87,24.87Z"/></g></g></svg>